<svg width="21" height="21" viewBox="0 0 21 21" fill="none" xmlns="http://www.w3.org/2000/svg">
<g clip-path="url(#clip0_0_68)">
<path fill-rule="evenodd" clip-rule="evenodd" d="M21 19.086L19.5153 20.5L15.0602 16.258L16.5449 14.843L21 19.086ZM8.39999 14.5C4.92659 14.5 2.10001 11.809 2.10001 8.5C2.10001 5.192 4.92659 2.5 8.39999 2.5C11.8734 2.5 14.7 5.192 14.7 8.5C14.7 11.809 11.8734 14.5 8.39999 14.5ZM8.39999 0.5C3.76109 0.5 0 4.082 0 8.5C0 12.918 3.76109 16.5 8.39999 16.5C13.0389 16.5 16.8 12.918 16.8 8.5C16.8 4.082 13.0389 0.5 8.39999 0.5Z" fill="#DB2B39"/>
</g>
<defs>
<clipPath id="clip0_0_68">
<rect width="21" height="21" fill="white"/>
</clipPath>
</defs>
</svg>
